<svg width="26" height="26" viewBox="0 0 26 26" fill="none" xmlns="http://www.w3.org/2000/svg">
<g clip-path="url(#clip0_1_926)">
<path d="M19.2959 13C19.2969 14.4818 18.7749 15.9165 17.8218 17.0512C16.8688 18.1859 15.5459 18.9478 14.0862 19.2028C12.6265 19.4578 11.1236 19.1895 9.8423 18.4451C8.56102 17.7007 7.58356 16.5279 7.08212 15.1335L3.48047 18.0148C4.60038 20.1437 6.4013 21.836 8.59567 22.8214C10.79 23.8068 13.2513 24.0285 15.5865 23.4512C17.9216 22.8739 19.996 21.5308 21.4784 19.6364C22.9608 17.742 23.7657 15.4055 23.7646 13" fill="#00AC47"/>
<path d="M19.2982 13C19.2974 14.0018 19.0572 14.9889 18.5976 15.8791C18.1381 16.7693 17.4725 17.5368 16.6562 18.1177L20.217 20.9662C21.3335 19.961 22.2264 18.7324 22.838 17.3601C23.4495 15.9878 23.766 14.5024 23.7669 13" fill="#4285F4"/>
<path d="M6.70312 13.0001C6.70468 12.2722 6.83328 11.5502 7.08313 10.8665L3.48148 7.98523C2.66255 9.52994 2.23438 11.2517 2.23438 13.0001C2.23437 14.7484 2.66255 16.4702 3.48148 18.0149L7.08313 15.1336C6.83328 14.45 6.70468 13.7279 6.70312 13.0001Z" fill="#FFBA00"/>
<path d="M12.999 6.70313C14.3314 6.7035 15.6288 7.12929 16.7024 7.91847L20.0011 4.83966C18.7766 3.78387 17.3294 3.01825 15.7676 2.59995C14.2058 2.18164 12.5697 2.12145 10.9814 2.42386C9.39306 2.72628 7.89354 3.38349 6.59473 4.34645C5.29592 5.30941 4.23135 6.55326 3.48047 7.98518L7.08212 10.8665C7.52137 9.64883 8.32493 8.596 9.38357 7.8511C10.4422 7.10621 11.7045 6.70539 12.999 6.70313Z" fill="#EA4435"/>
<path d="M23.7656 12.1875V13L21.9375 15.8438H13.4062V11.375H22.9531C23.1686 11.375 23.3753 11.4606 23.5276 11.613C23.68 11.7653 23.7656 11.972 23.7656 12.1875Z" fill="#4285F4"/>
</g>
<defs>
<clipPath id="clip0_1_926">
<rect width="26" height="26" fill="white"/>
</clipPath>
</defs>
</svg>
